<mxfile host="Electron" modified="2023-09-20T16:28:06.813Z" agent="Mozilla/5.0 (Macintosh; Intel Mac OS X 10_15_7) AppleWebKit/537.36 (KHTML, like Gecko) draw.io/21.6.8 Chrome/114.0.5735.289 Electron/25.5.0 Safari/537.36" etag="xoqW7Cj9CneGHRbZajPk" version="21.6.8" type="device">
  <diagram name="Page-1" id="eAiV2HlveXnox6a5wbPU">
    <mxGraphModel dx="637" dy="2998" grid="1" gridSize="10" guides="1" tooltips="1" connect="1" arrows="1" fold="1" page="1" pageScale="1" pageWidth="850" pageHeight="1100" math="1" shadow="0">
      <root>
        <mxCell id="0" />
        <mxCell id="1" parent="0" />
        <mxCell id="muE9ZtOaTJ1mrHtmLqYb-63" value="" style="ellipse;whiteSpace=wrap;html=1;strokeColor=#000000;" parent="1" vertex="1">
          <mxGeometry x="3890" y="-619" width="1180" height="1230" as="geometry" />
        </mxCell>
        <mxCell id="muE9ZtOaTJ1mrHtmLqYb-22" value="" style="ellipse;whiteSpace=wrap;html=1;strokeColor=#000000;" parent="1" vertex="1">
          <mxGeometry x="4020" y="-510" width="880" height="597" as="geometry" />
        </mxCell>
        <mxCell id="muE9ZtOaTJ1mrHtmLqYb-1" value="&lt;span style=&quot;caret-color: rgb(0, 0, 0); color: rgb(0, 0, 0); font-family: Helvetica; font-size: 12px; font-style: normal; font-variant-caps: normal; font-weight: 400; letter-spacing: normal; text-align: center; text-indent: 0px; text-transform: none; word-spacing: 0px; -webkit-text-stroke-width: 0px; text-decoration: none; float: none; display: inline !important;&quot;&gt;$$ H_{nominal}$$&lt;/span&gt;" style="ellipse;whiteSpace=wrap;html=1;aspect=fixed;fillColor=#B9E0A5;" parent="1" vertex="1">
          <mxGeometry x="2680" y="-140" width="80" height="80" as="geometry" />
        </mxCell>
        <mxCell id="muE9ZtOaTJ1mrHtmLqYb-2" value="&lt;span style=&quot;caret-color: rgb(0, 0, 0); color: rgb(0, 0, 0); font-family: Helvetica; font-size: 12px; font-style: normal; font-variant-caps: normal; font-weight: 400; letter-spacing: normal; text-align: center; text-indent: 0px; text-transform: none; word-spacing: 0px; -webkit-text-stroke-width: 0px; text-decoration: none; float: none; display: inline !important;&quot;&gt;$$ H_{hazardous}$$&lt;/span&gt;" style="ellipse;whiteSpace=wrap;html=1;aspect=fixed;fillColor=#FFCE9F;" parent="1" vertex="1">
          <mxGeometry x="2800" y="-140" width="80" height="80" as="geometry" />
        </mxCell>
        <mxCell id="muE9ZtOaTJ1mrHtmLqYb-3" value="&lt;span style=&quot;caret-color: rgb(0, 0, 0); color: rgb(0, 0, 0); font-family: Helvetica; font-size: 12px; font-style: normal; font-variant-caps: normal; font-weight: 400; letter-spacing: normal; text-align: center; text-indent: 0px; text-transform: none; word-spacing: 0px; -webkit-text-stroke-width: 0px; text-decoration: none; float: none; display: inline !important;&quot;&gt;$$ H_{hazardous}$$&lt;/span&gt;" style="ellipse;whiteSpace=wrap;html=1;aspect=fixed;fillColor=#F19C99;" parent="1" vertex="1">
          <mxGeometry x="2920" y="-140" width="80" height="80" as="geometry" />
        </mxCell>
        <mxCell id="muE9ZtOaTJ1mrHtmLqYb-4" value="" style="shape=flexArrow;endArrow=classic;html=1;rounded=0;fillColor=#F19C99;" parent="1" edge="1">
          <mxGeometry width="50" height="50" relative="1" as="geometry">
            <mxPoint x="2719.5" y="10" as="sourcePoint" />
            <mxPoint x="2719.5" y="-40" as="targetPoint" />
          </mxGeometry>
        </mxCell>
        <mxCell id="muE9ZtOaTJ1mrHtmLqYb-5" value="" style="shape=flexArrow;endArrow=classic;html=1;rounded=0;fillColor=#F19C99;" parent="1" edge="1">
          <mxGeometry width="50" height="50" relative="1" as="geometry">
            <mxPoint x="2839.5" y="10" as="sourcePoint" />
            <mxPoint x="2839.5" y="-40" as="targetPoint" />
          </mxGeometry>
        </mxCell>
        <mxCell id="muE9ZtOaTJ1mrHtmLqYb-6" value="" style="shape=flexArrow;endArrow=classic;html=1;rounded=0;fillColor=#B9E0A5;" parent="1" edge="1">
          <mxGeometry width="50" height="50" relative="1" as="geometry">
            <mxPoint x="2839.5" y="-210" as="sourcePoint" />
            <mxPoint x="2839.5" y="-160" as="targetPoint" />
          </mxGeometry>
        </mxCell>
        <mxCell id="muE9ZtOaTJ1mrHtmLqYb-7" value="" style="shape=flexArrow;endArrow=classic;html=1;rounded=0;fillColor=#B9E0A5;" parent="1" edge="1">
          <mxGeometry width="50" height="50" relative="1" as="geometry">
            <mxPoint x="2959.5" y="-210" as="sourcePoint" />
            <mxPoint x="2959.5" y="-160" as="targetPoint" />
          </mxGeometry>
        </mxCell>
        <mxCell id="muE9ZtOaTJ1mrHtmLqYb-8" value="&lt;font style=&quot;font-size: 18px;&quot;&gt;$$H$$&lt;/font&gt;" style="ellipse;whiteSpace=wrap;html=1;aspect=fixed;fillColor=#CCCCCC;" parent="1" vertex="1">
          <mxGeometry x="2800" y="100" width="80" height="80" as="geometry" />
        </mxCell>
        <mxCell id="muE9ZtOaTJ1mrHtmLqYb-9" value="&lt;font style=&quot;font-size: 18px;&quot;&gt;$$F$$&lt;/font&gt;" style="ellipse;whiteSpace=wrap;html=1;aspect=fixed;fillColor=#A9C4EB;" parent="1" vertex="1">
          <mxGeometry x="2800" y="220" width="80" height="80" as="geometry" />
        </mxCell>
        <mxCell id="muE9ZtOaTJ1mrHtmLqYb-10" value="&lt;font style=&quot;font-size: 14px;&quot;&gt;$$A_{controller}$$&lt;/font&gt;" style="ellipse;whiteSpace=wrap;html=1;aspect=fixed;fillColor=#A9C4EB;" parent="1" vertex="1">
          <mxGeometry x="4290" y="-160" width="80" height="80" as="geometry" />
        </mxCell>
        <mxCell id="muE9ZtOaTJ1mrHtmLqYb-11" value="&lt;font style=&quot;font-size: 14px;&quot;&gt;$$M_{actuate}$$&lt;/font&gt;" style="ellipse;whiteSpace=wrap;html=1;aspect=fixed;fillColor=#A9C4EB;" parent="1" vertex="1">
          <mxGeometry x="4490" y="-160" width="80" height="80" as="geometry" />
        </mxCell>
        <mxCell id="muE9ZtOaTJ1mrHtmLqYb-13" value="&lt;font style=&quot;font-size: 14px;&quot;&gt;$$H_{sensor_ {fault}}$$&lt;/font&gt;" style="ellipse;whiteSpace=wrap;html=1;aspect=fixed;fillColor=#CCCCCC;" parent="1" vertex="1">
          <mxGeometry x="4050" y="-160" width="80" height="80" as="geometry" />
        </mxCell>
        <mxCell id="muE9ZtOaTJ1mrHtmLqYb-14" value="&lt;font style=&quot;font-size: 14px;&quot;&gt;$$H_{power_{outage}}$$&lt;/font&gt;" style="ellipse;whiteSpace=wrap;html=1;aspect=fixed;fillColor=#CCCCCC;" parent="1" vertex="1">
          <mxGeometry x="4290" y="-283" width="80" height="80" as="geometry" />
        </mxCell>
        <mxCell id="muE9ZtOaTJ1mrHtmLqYb-15" value="" style="shape=flexArrow;endArrow=classic;html=1;rounded=0;fillColor=#000000;exitX=1;exitY=0.5;exitDx=0;exitDy=0;width=0.3225806451612903;endSize=1.064804469273743;endWidth=2.980717246350694;" parent="1" source="muE9ZtOaTJ1mrHtmLqYb-13" target="muE9ZtOaTJ1mrHtmLqYb-10" edge="1">
          <mxGeometry width="50" height="50" relative="1" as="geometry">
            <mxPoint x="4380" y="-110" as="sourcePoint" />
            <mxPoint x="4500" y="-110" as="targetPoint" />
          </mxGeometry>
        </mxCell>
        <mxCell id="muE9ZtOaTJ1mrHtmLqYb-24" value="&lt;div style=&quot;text-align: left;&quot;&gt;Controller is susceptible to:&amp;nbsp;&lt;/div&gt;&lt;div style=&quot;text-align: left;&quot;&gt;--&amp;gt; sensor faults&amp;nbsp;&lt;/div&gt;&lt;div style=&quot;text-align: left;&quot;&gt;--&amp;gt; power outages&amp;nbsp;&lt;/div&gt;&lt;div style=&quot;text-align: left;&quot;&gt;--&amp;gt; aging faults&lt;/div&gt;&lt;div style=&quot;text-align: left;&quot;&gt;--&amp;gt; malfunctioning: poor update/change&amp;nbsp;&lt;/div&gt;" style="text;html=1;strokeColor=none;fillColor=none;align=center;verticalAlign=middle;whiteSpace=wrap;rounded=0;" parent="1" vertex="1">
          <mxGeometry x="3980" y="-280" width="329" height="160" as="geometry" />
        </mxCell>
        <mxCell id="muE9ZtOaTJ1mrHtmLqYb-30" value="" style="shape=flexArrow;endArrow=classic;html=1;rounded=0;fillColor=#000000;exitX=1;exitY=1;exitDx=0;exitDy=0;width=0.3225806451612903;endSize=1.064804469273743;endWidth=2.980717246350694;entryX=0;entryY=0;entryDx=0;entryDy=0;" parent="1" source="muE9ZtOaTJ1mrHtmLqYb-10" target="muE9ZtOaTJ1mrHtmLqYb-122" edge="1">
          <mxGeometry width="50" height="50" relative="1" as="geometry">
            <mxPoint x="4140" y="-110" as="sourcePoint" />
            <mxPoint x="4300" y="-110" as="targetPoint" />
          </mxGeometry>
        </mxCell>
        <mxCell id="muE9ZtOaTJ1mrHtmLqYb-31" value="" style="shape=flexArrow;endArrow=classic;html=1;rounded=0;fillColor=#000000;exitX=0.5;exitY=1;exitDx=0;exitDy=0;width=0.3225806451612903;endSize=1.064804469273743;endWidth=2.980717246350694;entryX=0.5;entryY=0;entryDx=0;entryDy=0;" parent="1" source="muE9ZtOaTJ1mrHtmLqYb-14" target="muE9ZtOaTJ1mrHtmLqYb-10" edge="1">
          <mxGeometry width="50" height="50" relative="1" as="geometry">
            <mxPoint x="4150" y="-100" as="sourcePoint" />
            <mxPoint x="4425" y="-198" as="targetPoint" />
          </mxGeometry>
        </mxCell>
        <mxCell id="muE9ZtOaTJ1mrHtmLqYb-36" value="&lt;font style=&quot;font-size: 14px;&quot;&gt;Aging&lt;/font&gt;" style="ellipse;whiteSpace=wrap;html=1;aspect=fixed;fillColor=#FFFFFF;strokeColor=#F19C99;strokeWidth=2;dashed=1;dashPattern=8 8;" parent="1" vertex="1">
          <mxGeometry x="4490" y="-260" width="50" height="50" as="geometry" />
        </mxCell>
        <mxCell id="muE9ZtOaTJ1mrHtmLqYb-39" value="" style="shape=flexArrow;endArrow=classic;html=1;rounded=0;exitX=0.5;exitY=1;exitDx=0;exitDy=0;width=0.3225806451612903;endSize=1.064804469273743;endWidth=2.980717246350694;strokeColor=#F19C99;entryX=0.5;entryY=0;entryDx=0;entryDy=0;" parent="1" source="muE9ZtOaTJ1mrHtmLqYb-36" target="muE9ZtOaTJ1mrHtmLqYb-11" edge="1">
          <mxGeometry width="50" height="50" relative="1" as="geometry">
            <mxPoint x="4440" y="-250" as="sourcePoint" />
            <mxPoint x="4407.792735394284" y="-317.4040634005862" as="targetPoint" />
          </mxGeometry>
        </mxCell>
        <mxCell id="muE9ZtOaTJ1mrHtmLqYb-41" value="&lt;font size=&quot;1&quot;&gt;Bad update&lt;/font&gt;&lt;font style=&quot;font-size: 10px;&quot;&gt;&amp;nbsp;&lt;/font&gt;" style="ellipse;whiteSpace=wrap;html=1;aspect=fixed;fillColor=#FFFFFF;strokeColor=#F19C99;strokeWidth=2;dashed=1;dashPattern=8 8;" parent="1" vertex="1">
          <mxGeometry x="4240" y="-60" width="50" height="50" as="geometry" />
        </mxCell>
        <mxCell id="muE9ZtOaTJ1mrHtmLqYb-42" value="&lt;font style=&quot;font-size: 10px;&quot;&gt;Incorrect maintenance procedure&lt;/font&gt;" style="ellipse;whiteSpace=wrap;html=1;aspect=fixed;fillColor=#FFFFFF;strokeColor=#F19C99;strokeWidth=2;dashed=1;dashPattern=8 8;" parent="1" vertex="1">
          <mxGeometry x="4570" y="-420" width="50" height="50" as="geometry" />
        </mxCell>
        <mxCell id="muE9ZtOaTJ1mrHtmLqYb-45" value="&lt;div style=&quot;text-align: left;&quot;&gt;The hardware on the controller is affected by:&amp;nbsp;&lt;/div&gt;&lt;div style=&quot;text-align: left;&quot;&gt;--&amp;gt; power outages&amp;nbsp;&lt;/div&gt;&lt;div style=&quot;text-align: left;&quot;&gt;--&amp;gt; aging faults&lt;/div&gt;&lt;div style=&quot;text-align: left;&quot;&gt;--&amp;gt; malfunctioning: poor update/change&amp;nbsp;&lt;/div&gt;&lt;div style=&quot;text-align: left;&quot;&gt;--&amp;gt; damage: dust deposition, meteorite impact, poor maintenance, etc.&amp;nbsp;&lt;/div&gt;" style="text;html=1;strokeColor=none;fillColor=none;align=center;verticalAlign=middle;whiteSpace=wrap;rounded=0;" parent="1" vertex="1">
          <mxGeometry x="4560.5" y="-610" width="329" height="160" as="geometry" />
        </mxCell>
        <mxCell id="muE9ZtOaTJ1mrHtmLqYb-48" value="" style="shape=flexArrow;endArrow=classic;html=1;rounded=0;fillColor=#000000;exitX=0;exitY=0.5;exitDx=0;exitDy=0;width=0.3225806451612903;endSize=1.064804469273743;endWidth=2.980717246350694;entryX=1;entryY=0.5;entryDx=0;entryDy=0;" parent="1" source="muE9ZtOaTJ1mrHtmLqYb-47" target="muE9ZtOaTJ1mrHtmLqYb-11" edge="1">
          <mxGeometry width="50" height="50" relative="1" as="geometry">
            <mxPoint x="4480" y="-290" as="sourcePoint" />
            <mxPoint x="4580" y="-290" as="targetPoint" />
          </mxGeometry>
        </mxCell>
        <mxCell id="muE9ZtOaTJ1mrHtmLqYb-51" value="&lt;font style=&quot;font-size: 10px;&quot;&gt;Dust&lt;/font&gt;" style="ellipse;whiteSpace=wrap;html=1;aspect=fixed;fillColor=#FFFFFF;strokeColor=#F19C99;strokeWidth=2;dashed=1;dashPattern=8 8;direction=north;" parent="1" vertex="1">
          <mxGeometry x="4790" y="-145" width="50" height="50" as="geometry" />
        </mxCell>
        <mxCell id="muE9ZtOaTJ1mrHtmLqYb-55" value="&lt;font style=&quot;font-size: 14px;&quot;&gt;$$V$$&lt;/font&gt;" style="ellipse;whiteSpace=wrap;html=1;aspect=fixed;fillColor=#FFFFFF;strokeColor=#080505;strokeWidth=1;" parent="1" vertex="1">
          <mxGeometry x="2800" y="340" width="80" height="80" as="geometry" />
        </mxCell>
        <mxCell id="muE9ZtOaTJ1mrHtmLqYb-56" value="&lt;font style=&quot;font-size: 12px;&quot;&gt;Triggers&lt;/font&gt;" style="ellipse;whiteSpace=wrap;html=1;aspect=fixed;fillColor=#FFFFFF;strokeColor=#F19C99;strokeWidth=2;dashed=1;dashPattern=8 8;" parent="1" vertex="1">
          <mxGeometry x="2815" y="460" width="50" height="50" as="geometry" />
        </mxCell>
        <mxCell id="muE9ZtOaTJ1mrHtmLqYb-57" value="&lt;div style=&quot;text-align: center;&quot;&gt;&lt;font style=&quot;font-size: 36px;&quot;&gt;Controller&amp;nbsp;&lt;/font&gt;&lt;/div&gt;" style="text;whiteSpace=wrap;html=1;fillColor=none;" parent="1" vertex="1">
          <mxGeometry x="4030" y="-380" width="150" height="40" as="geometry" />
        </mxCell>
        <mxCell id="muE9ZtOaTJ1mrHtmLqYb-61" value="&lt;font style=&quot;font-size: 14px;&quot;&gt;$$F_{loss_{heat}}$$&lt;/font&gt;" style="ellipse;whiteSpace=wrap;html=1;aspect=fixed;fillColor=#A9C4EB;" parent="1" vertex="1">
          <mxGeometry x="4490" y="200" width="80" height="80" as="geometry" />
        </mxCell>
        <mxCell id="muE9ZtOaTJ1mrHtmLqYb-62" value="" style="shape=flexArrow;endArrow=classic;html=1;rounded=0;fillColor=#000000;exitX=0.5;exitY=1;exitDx=0;exitDy=0;width=0.3225806451612903;endSize=1.064804469273743;endWidth=2.980717246350694;entryX=0.5;entryY=0;entryDx=0;entryDy=0;" parent="1" source="muE9ZtOaTJ1mrHtmLqYb-11" target="muE9ZtOaTJ1mrHtmLqYb-122" edge="1">
          <mxGeometry width="50" height="50" relative="1" as="geometry">
            <mxPoint x="4380" y="-110" as="sourcePoint" />
            <mxPoint x="4500" y="-110" as="targetPoint" />
          </mxGeometry>
        </mxCell>
        <mxCell id="muE9ZtOaTJ1mrHtmLqYb-64" value="&lt;div style=&quot;text-align: left;&quot;&gt;Main functionality of a radiator panel is to lose heat. Radiator panels are painted white to increase the efficiency of this heat loss. But that&#39;s about it. Radiator panels are susceptible to:&amp;nbsp;&lt;/div&gt;&lt;div style=&quot;text-align: left;&quot;&gt;--&amp;gt; losing white paint coating/ chip, dust, human action, robotic action, meteorite impact, aging, etc.&amp;nbsp;&lt;/div&gt;&lt;div style=&quot;text-align: left;&quot;&gt;--&amp;gt; these criteria can also physically damage a radiator panel itself which when the it&#39;s directly affected. &amp;nbsp;&lt;/div&gt;&lt;div style=&quot;text-align: left;&quot;&gt;--&amp;gt; lastly they can be affected by other attachments of tank assemblies onto them.&amp;nbsp;&lt;/div&gt;" style="text;html=1;strokeColor=none;fillColor=none;align=center;verticalAlign=middle;whiteSpace=wrap;rounded=0;" parent="1" vertex="1">
          <mxGeometry x="3870" y="290" width="329" height="160" as="geometry" />
        </mxCell>
        <mxCell id="muE9ZtOaTJ1mrHtmLqYb-65" value="&lt;font style=&quot;font-size: 14px;&quot;&gt;$$V_{paint_{chip}}$$&lt;/font&gt;" style="ellipse;whiteSpace=wrap;html=1;aspect=fixed;fillColor=#FFFFFF;strokeColor=#080505;strokeWidth=1;" parent="1" vertex="1">
          <mxGeometry x="4290" y="200" width="80" height="80" as="geometry" />
        </mxCell>
        <mxCell id="muE9ZtOaTJ1mrHtmLqYb-66" value="&lt;font style=&quot;font-size: 10px;&quot;&gt;Dust&lt;/font&gt;" style="ellipse;whiteSpace=wrap;html=1;aspect=fixed;fillColor=#FFFFFF;strokeColor=#F19C99;strokeWidth=2;dashed=1;dashPattern=8 8;" parent="1" vertex="1">
          <mxGeometry x="4435" y="410" width="50" height="50" as="geometry" />
        </mxCell>
        <mxCell id="muE9ZtOaTJ1mrHtmLqYb-67" value="&lt;font style=&quot;font-size: 10px;&quot;&gt;Meteorite Impact&lt;/font&gt;" style="ellipse;whiteSpace=wrap;html=1;aspect=fixed;fillColor=#FFFFFF;strokeColor=#F19C99;strokeWidth=2;dashed=1;dashPattern=8 8;" parent="1" vertex="1">
          <mxGeometry x="4330" y="345" width="50" height="50" as="geometry" />
        </mxCell>
        <mxCell id="muE9ZtOaTJ1mrHtmLqYb-69" value="&lt;font style=&quot;font-size: 14px;&quot;&gt;Aging&lt;/font&gt;" style="ellipse;whiteSpace=wrap;html=1;aspect=fixed;fillColor=#FFFFFF;strokeColor=#F19C99;strokeWidth=2;dashed=1;dashPattern=8 8;" parent="1" vertex="1">
          <mxGeometry x="4620" y="120" width="50" height="50" as="geometry" />
        </mxCell>
        <mxCell id="muE9ZtOaTJ1mrHtmLqYb-70" value="&lt;font style=&quot;font-size: 10px;&quot;&gt;Human Action&amp;nbsp;&lt;/font&gt;" style="ellipse;whiteSpace=wrap;html=1;aspect=fixed;fillColor=#FFFFFF;strokeColor=#F19C99;strokeWidth=2;dashed=1;dashPattern=8 8;" parent="1" vertex="1">
          <mxGeometry x="4635" y="510" width="50" height="50" as="geometry" />
        </mxCell>
        <mxCell id="muE9ZtOaTJ1mrHtmLqYb-71" value="&lt;font style=&quot;font-size: 10px;&quot;&gt;Robot Action&amp;nbsp;&lt;/font&gt;" style="ellipse;whiteSpace=wrap;html=1;aspect=fixed;fillColor=#FFFFFF;strokeColor=#F19C99;strokeWidth=2;dashed=1;dashPattern=8 8;" parent="1" vertex="1">
          <mxGeometry x="4750" y="450" width="50" height="50" as="geometry" />
        </mxCell>
        <mxCell id="muE9ZtOaTJ1mrHtmLqYb-72" value="&lt;font style=&quot;font-size: 10px;&quot;&gt;Human Action&amp;nbsp;&lt;/font&gt;" style="ellipse;whiteSpace=wrap;html=1;aspect=fixed;fillColor=#FFFFFF;strokeColor=#F19C99;strokeWidth=2;dashed=1;dashPattern=8 8;" parent="1" vertex="1">
          <mxGeometry x="4680" y="-450" width="50" height="50" as="geometry" />
        </mxCell>
        <mxCell id="muE9ZtOaTJ1mrHtmLqYb-73" value="&lt;font style=&quot;font-size: 10px;&quot;&gt;Robot Action&amp;nbsp;&lt;/font&gt;" style="ellipse;whiteSpace=wrap;html=1;aspect=fixed;fillColor=#FFFFFF;strokeColor=#F19C99;strokeWidth=2;dashed=1;dashPattern=8 8;" parent="1" vertex="1">
          <mxGeometry x="4730" y="-400" width="50" height="50" as="geometry" />
        </mxCell>
        <mxCell id="muE9ZtOaTJ1mrHtmLqYb-75" value="" style="shape=flexArrow;endArrow=classic;html=1;rounded=0;exitX=0;exitY=1;exitDx=0;exitDy=0;width=0.3225806451612903;endSize=1.064804469273743;endWidth=2.980717246350694;strokeColor=#F19C99;entryX=0.5;entryY=0;entryDx=0;entryDy=0;" parent="1" source="muE9ZtOaTJ1mrHtmLqYb-72" target="muE9ZtOaTJ1mrHtmLqYb-109" edge="1">
          <mxGeometry width="50" height="50" relative="1" as="geometry">
            <mxPoint x="4740" y="-375" as="sourcePoint" />
            <mxPoint x="4700" y="-375" as="targetPoint" />
          </mxGeometry>
        </mxCell>
        <mxCell id="muE9ZtOaTJ1mrHtmLqYb-76" value="" style="shape=flexArrow;endArrow=classic;html=1;rounded=0;exitX=0.048;exitY=0.668;exitDx=0;exitDy=0;width=0.3225806451612903;endSize=1.064804469273743;endWidth=2.980717246350694;strokeColor=#F19C99;entryX=1;entryY=0.5;entryDx=0;entryDy=0;exitPerimeter=0;" parent="1" source="muE9ZtOaTJ1mrHtmLqYb-73" target="muE9ZtOaTJ1mrHtmLqYb-109" edge="1">
          <mxGeometry width="50" height="50" relative="1" as="geometry">
            <mxPoint x="4747" y="-357" as="sourcePoint" />
            <mxPoint x="4735" y="-330" as="targetPoint" />
          </mxGeometry>
        </mxCell>
        <mxCell id="muE9ZtOaTJ1mrHtmLqYb-77" value="&lt;font style=&quot;font-size: 14px;&quot;&gt;$$V_{damage}$$&lt;/font&gt;" style="ellipse;whiteSpace=wrap;html=1;aspect=fixed;fillColor=#FFFFFF;strokeColor=#080505;strokeWidth=1;" parent="1" vertex="1">
          <mxGeometry x="4685" y="200" width="80" height="80" as="geometry" />
        </mxCell>
        <mxCell id="muE9ZtOaTJ1mrHtmLqYb-78" value="" style="shape=flexArrow;endArrow=classic;html=1;rounded=0;fillColor=#000000;exitX=0;exitY=0.5;exitDx=0;exitDy=0;width=0.3225806451612903;endSize=1.064804469273743;endWidth=2.980717246350694;entryX=1;entryY=0.5;entryDx=0;entryDy=0;" parent="1" edge="1">
          <mxGeometry width="50" height="50" relative="1" as="geometry">
            <mxPoint x="4685" y="239.41000000000003" as="sourcePoint" />
            <mxPoint x="4570" y="239.41000000000003" as="targetPoint" />
          </mxGeometry>
        </mxCell>
        <mxCell id="muE9ZtOaTJ1mrHtmLqYb-79" value="" style="shape=flexArrow;endArrow=classic;html=1;rounded=0;fillColor=#000000;exitX=1;exitY=0.5;exitDx=0;exitDy=0;width=0.3225806451612903;endSize=1.064804469273743;endWidth=2.980717246350694;entryX=0;entryY=0.5;entryDx=0;entryDy=0;" parent="1" source="muE9ZtOaTJ1mrHtmLqYb-65" target="muE9ZtOaTJ1mrHtmLqYb-61" edge="1">
          <mxGeometry width="50" height="50" relative="1" as="geometry">
            <mxPoint x="4695" y="249.41000000000003" as="sourcePoint" />
            <mxPoint x="4580" y="249.41000000000003" as="targetPoint" />
          </mxGeometry>
        </mxCell>
        <mxCell id="muE9ZtOaTJ1mrHtmLqYb-81" value="" style="shape=flexArrow;endArrow=classic;html=1;rounded=0;exitX=0;exitY=1;exitDx=0;exitDy=0;width=0.3225806451612903;endSize=1.064804469273743;endWidth=2.980717246350694;strokeColor=#F19C99;entryX=1;entryY=0;entryDx=0;entryDy=0;" parent="1" source="muE9ZtOaTJ1mrHtmLqYb-69" target="muE9ZtOaTJ1mrHtmLqYb-61" edge="1">
          <mxGeometry width="50" height="50" relative="1" as="geometry">
            <mxPoint x="4712" y="-295" as="sourcePoint" />
            <mxPoint x="4660" y="-290" as="targetPoint" />
          </mxGeometry>
        </mxCell>
        <mxCell id="muE9ZtOaTJ1mrHtmLqYb-85" value="&lt;font style=&quot;font-size: 10px;&quot;&gt;Incorrect maintenance procedure&lt;/font&gt;" style="ellipse;whiteSpace=wrap;html=1;aspect=fixed;fillColor=#FFFFFF;strokeColor=#F19C99;strokeWidth=2;dashed=1;dashPattern=8 8;" parent="1" vertex="1">
          <mxGeometry x="4570" y="410" width="50" height="50" as="geometry" />
        </mxCell>
        <mxCell id="muE9ZtOaTJ1mrHtmLqYb-86" value="&lt;font style=&quot;font-size: 10px;&quot;&gt;Bad operation&lt;/font&gt;" style="ellipse;whiteSpace=wrap;html=1;aspect=fixed;fillColor=#FFFFFF;strokeColor=#F19C99;strokeWidth=2;dashed=1;dashPattern=8 8;" parent="1" vertex="1">
          <mxGeometry x="4670" y="350" width="50" height="50" as="geometry" />
        </mxCell>
        <mxCell id="muE9ZtOaTJ1mrHtmLqYb-87" value="" style="ellipse;whiteSpace=wrap;html=1;aspect=fixed;fillColor=#000000;strokeColor=#000000;" parent="1" vertex="1">
          <mxGeometry x="4525" y="340" width="10" height="10" as="geometry" />
        </mxCell>
        <mxCell id="muE9ZtOaTJ1mrHtmLqYb-88" value="" style="ellipse;whiteSpace=wrap;html=1;aspect=fixed;fillColor=#000000;strokeColor=#000000;" parent="1" vertex="1">
          <mxGeometry x="4670" y="450" width="10" height="10" as="geometry" />
        </mxCell>
        <mxCell id="muE9ZtOaTJ1mrHtmLqYb-90" value="" style="shape=flexArrow;endArrow=classic;html=1;rounded=0;exitX=0.5;exitY=0;exitDx=0;exitDy=0;width=0.3225806451612903;endSize=1.064804469273743;endWidth=2.980717246350694;strokeColor=#F19C99;entryX=0;entryY=1;entryDx=0;entryDy=0;" parent="1" source="muE9ZtOaTJ1mrHtmLqYb-66" target="muE9ZtOaTJ1mrHtmLqYb-87" edge="1">
          <mxGeometry width="50" height="50" relative="1" as="geometry">
            <mxPoint x="4637" y="173" as="sourcePoint" />
            <mxPoint x="4568" y="222" as="targetPoint" />
          </mxGeometry>
        </mxCell>
        <mxCell id="muE9ZtOaTJ1mrHtmLqYb-91" value="" style="shape=flexArrow;endArrow=classic;html=1;rounded=0;exitX=0.342;exitY=0.033;exitDx=0;exitDy=0;width=0.3225806451612903;endSize=1.064804469273743;endWidth=2.980717246350694;strokeColor=#F19C99;entryX=1;entryY=1;entryDx=0;entryDy=0;exitPerimeter=0;" parent="1" source="muE9ZtOaTJ1mrHtmLqYb-85" target="muE9ZtOaTJ1mrHtmLqYb-87" edge="1">
          <mxGeometry width="50" height="50" relative="1" as="geometry">
            <mxPoint x="4470" y="420" as="sourcePoint" />
            <mxPoint x="4536" y="359" as="targetPoint" />
          </mxGeometry>
        </mxCell>
        <mxCell id="muE9ZtOaTJ1mrHtmLqYb-92" value="" style="shape=flexArrow;endArrow=classic;html=1;rounded=0;exitX=0;exitY=0.5;exitDx=0;exitDy=0;width=0.3225806451612903;endSize=1.064804469273743;endWidth=2.980717246350694;strokeColor=#F19C99;entryX=1;entryY=0.5;entryDx=0;entryDy=0;" parent="1" source="muE9ZtOaTJ1mrHtmLqYb-86" target="muE9ZtOaTJ1mrHtmLqYb-87" edge="1">
          <mxGeometry width="50" height="50" relative="1" as="geometry">
            <mxPoint x="4597" y="422" as="sourcePoint" />
            <mxPoint x="4544" y="359" as="targetPoint" />
          </mxGeometry>
        </mxCell>
        <mxCell id="muE9ZtOaTJ1mrHtmLqYb-93" value="" style="shape=flexArrow;endArrow=classic;html=1;rounded=0;exitX=1;exitY=0.5;exitDx=0;exitDy=0;width=0.3225806451612903;endSize=1.064804469273743;endWidth=2.980717246350694;strokeColor=#F19C99;entryX=0;entryY=0.5;entryDx=0;entryDy=0;" parent="1" source="muE9ZtOaTJ1mrHtmLqYb-67" target="muE9ZtOaTJ1mrHtmLqYb-87" edge="1">
          <mxGeometry width="50" height="50" relative="1" as="geometry">
            <mxPoint x="4680" y="385" as="sourcePoint" />
            <mxPoint x="4545" y="355" as="targetPoint" />
          </mxGeometry>
        </mxCell>
        <mxCell id="muE9ZtOaTJ1mrHtmLqYb-94" value="" style="shape=flexArrow;endArrow=classic;html=1;rounded=0;exitX=0;exitY=1;exitDx=0;exitDy=0;width=0.3225806451612903;endSize=1.064804469273743;endWidth=2.980717246350694;strokeColor=#F19C99;entryX=1;entryY=1;entryDx=0;entryDy=0;" parent="1" source="muE9ZtOaTJ1mrHtmLqYb-87" target="muE9ZtOaTJ1mrHtmLqYb-65" edge="1">
          <mxGeometry width="50" height="50" relative="1" as="geometry">
            <mxPoint x="4690" y="395" as="sourcePoint" />
            <mxPoint x="4555" y="365" as="targetPoint" />
          </mxGeometry>
        </mxCell>
        <mxCell id="muE9ZtOaTJ1mrHtmLqYb-95" value="" style="shape=flexArrow;endArrow=classic;html=1;rounded=0;exitX=1;exitY=0.5;exitDx=0;exitDy=0;width=0.3225806451612903;endSize=1.064804469273743;endWidth=2.980717246350694;strokeColor=#F19C99;entryX=0;entryY=1;entryDx=0;entryDy=0;" parent="1" source="muE9ZtOaTJ1mrHtmLqYb-87" target="muE9ZtOaTJ1mrHtmLqYb-77" edge="1">
          <mxGeometry width="50" height="50" relative="1" as="geometry">
            <mxPoint x="4536" y="359" as="sourcePoint" />
            <mxPoint x="4378" y="278" as="targetPoint" />
          </mxGeometry>
        </mxCell>
        <mxCell id="muE9ZtOaTJ1mrHtmLqYb-96" value="" style="shape=flexArrow;endArrow=classic;html=1;rounded=0;exitX=0.5;exitY=0;exitDx=0;exitDy=0;width=0.3225806451612903;endSize=1.064804469273743;endWidth=2.980717246350694;strokeColor=#F19C99;entryX=0.5;entryY=1;entryDx=0;entryDy=0;" parent="1" source="muE9ZtOaTJ1mrHtmLqYb-70" target="muE9ZtOaTJ1mrHtmLqYb-88" edge="1">
          <mxGeometry width="50" height="50" relative="1" as="geometry">
            <mxPoint x="4680" y="385" as="sourcePoint" />
            <mxPoint x="4545" y="355" as="targetPoint" />
          </mxGeometry>
        </mxCell>
        <mxCell id="muE9ZtOaTJ1mrHtmLqYb-97" value="" style="shape=flexArrow;endArrow=classic;html=1;rounded=0;exitX=0;exitY=0.5;exitDx=0;exitDy=0;width=0.3225806451612903;endSize=1.064804469273743;endWidth=2.980717246350694;strokeColor=#F19C99;entryX=1;entryY=0.5;entryDx=0;entryDy=0;" parent="1" source="muE9ZtOaTJ1mrHtmLqYb-71" target="muE9ZtOaTJ1mrHtmLqYb-88" edge="1">
          <mxGeometry width="50" height="50" relative="1" as="geometry">
            <mxPoint x="4670" y="520" as="sourcePoint" />
            <mxPoint x="4685" y="470" as="targetPoint" />
          </mxGeometry>
        </mxCell>
        <mxCell id="muE9ZtOaTJ1mrHtmLqYb-98" value="" style="shape=flexArrow;endArrow=classic;html=1;rounded=0;exitX=0;exitY=0.5;exitDx=0;exitDy=0;width=0.3225806451612903;endSize=1.064804469273743;endWidth=2.980717246350694;strokeColor=#F19C99;entryX=0.978;entryY=0.668;entryDx=0;entryDy=0;entryPerimeter=0;" parent="1" source="muE9ZtOaTJ1mrHtmLqYb-88" target="muE9ZtOaTJ1mrHtmLqYb-85" edge="1">
          <mxGeometry width="50" height="50" relative="1" as="geometry">
            <mxPoint x="4760" y="485" as="sourcePoint" />
            <mxPoint x="4690" y="465" as="targetPoint" />
          </mxGeometry>
        </mxCell>
        <mxCell id="muE9ZtOaTJ1mrHtmLqYb-99" value="" style="shape=flexArrow;endArrow=classic;html=1;rounded=0;width=0.3225806451612903;endSize=1.064804469273743;endWidth=2.980717246350694;strokeColor=#F19C99;exitX=0.5;exitY=0;exitDx=0;exitDy=0;" parent="1" source="muE9ZtOaTJ1mrHtmLqYb-88" edge="1">
          <mxGeometry width="50" height="50" relative="1" as="geometry">
            <mxPoint x="4680" y="450" as="sourcePoint" />
            <mxPoint x="4690" y="400" as="targetPoint" />
          </mxGeometry>
        </mxCell>
        <mxCell id="muE9ZtOaTJ1mrHtmLqYb-100" value="&lt;div style=&quot;text-align: center;&quot;&gt;&lt;font style=&quot;font-size: 48px;&quot;&gt;Radiator Panels&lt;/font&gt;&lt;/div&gt;" style="text;whiteSpace=wrap;html=1;fillColor=none;" parent="1" vertex="1">
          <mxGeometry x="4190" y="510" width="150" height="40" as="geometry" />
        </mxCell>
        <mxCell id="muE9ZtOaTJ1mrHtmLqYb-103" value="&lt;font style=&quot;font-size: 14px;&quot;&gt;$$V_{damage}$$&lt;/font&gt;" style="ellipse;whiteSpace=wrap;html=1;aspect=fixed;fillColor=#FFFFFF;strokeColor=#080505;strokeWidth=1;" parent="1" vertex="1">
          <mxGeometry x="4660" y="-100" width="80" height="80" as="geometry" />
        </mxCell>
        <mxCell id="muE9ZtOaTJ1mrHtmLqYb-105" value="" style="shape=flexArrow;endArrow=classic;html=1;rounded=0;fillColor=#000000;exitX=-0.009;exitY=0.444;exitDx=0;exitDy=0;width=0.3225806451612903;endSize=1.064804469273743;endWidth=2.980717246350694;entryX=0.978;entryY=0.746;entryDx=0;entryDy=0;exitPerimeter=0;entryPerimeter=0;" parent="1" source="muE9ZtOaTJ1mrHtmLqYb-103" target="muE9ZtOaTJ1mrHtmLqYb-11" edge="1">
          <mxGeometry width="50" height="50" relative="1" as="geometry">
            <mxPoint x="4670" y="-153" as="sourcePoint" />
            <mxPoint x="4580" y="-110" as="targetPoint" />
          </mxGeometry>
        </mxCell>
        <mxCell id="muE9ZtOaTJ1mrHtmLqYb-107" value="" style="shape=flexArrow;endArrow=classic;html=1;rounded=0;fillColor=#FFFFFF;exitX=1;exitY=0;exitDx=0;exitDy=0;width=0.3225806451612903;endSize=1.064804469273743;endWidth=2.980717246350694;strokeColor=#F19C99;entryX=0;entryY=1;entryDx=0;entryDy=0;" parent="1" source="muE9ZtOaTJ1mrHtmLqYb-41" target="muE9ZtOaTJ1mrHtmLqYb-10" edge="1">
          <mxGeometry width="50" height="50" relative="1" as="geometry">
            <mxPoint x="4505" y="-380" as="sourcePoint" />
            <mxPoint x="4463" y="-322" as="targetPoint" />
          </mxGeometry>
        </mxCell>
        <mxCell id="muE9ZtOaTJ1mrHtmLqYb-109" value="" style="ellipse;whiteSpace=wrap;html=1;aspect=fixed;fillColor=#000000;strokeColor=#000000;" parent="1" vertex="1">
          <mxGeometry x="4654" y="-345" width="10" height="10" as="geometry" />
        </mxCell>
        <mxCell id="muE9ZtOaTJ1mrHtmLqYb-110" value="&lt;font size=&quot;1&quot;&gt;Bearing Loss&amp;nbsp;&lt;/font&gt;" style="ellipse;whiteSpace=wrap;html=1;aspect=fixed;fillColor=#FFFFFF;strokeColor=#F19C99;strokeWidth=2;dashed=1;dashPattern=8 8;" parent="1" vertex="1">
          <mxGeometry x="4775" y="-253" width="50" height="50" as="geometry" />
        </mxCell>
        <mxCell id="muE9ZtOaTJ1mrHtmLqYb-116" value="" style="shape=flexArrow;endArrow=classic;html=1;rounded=0;exitX=0.5;exitY=1;exitDx=0;exitDy=0;width=0.3225806451612903;endSize=1.064804469273743;endWidth=2.980717246350694;strokeColor=#F19C99;entryX=0;entryY=0;entryDx=0;entryDy=0;" parent="1" source="muE9ZtOaTJ1mrHtmLqYb-109" target="muE9ZtOaTJ1mrHtmLqYb-110" edge="1">
          <mxGeometry width="50" height="50" relative="1" as="geometry">
            <mxPoint x="4737" y="-327" as="sourcePoint" />
            <mxPoint x="4645" y="-310" as="targetPoint" />
          </mxGeometry>
        </mxCell>
        <mxCell id="muE9ZtOaTJ1mrHtmLqYb-118" value="" style="shape=flexArrow;endArrow=classic;html=1;rounded=0;width=0.3225806451612903;endSize=1.064804469273743;endWidth=2.980717246350694;strokeColor=#F19C99;exitX=0;exitY=1;exitDx=0;exitDy=0;entryX=0.5;entryY=0;entryDx=0;entryDy=0;" parent="1" source="muE9ZtOaTJ1mrHtmLqYb-109" target="muE9ZtOaTJ1mrHtmLqYb-112" edge="1">
          <mxGeometry width="50" height="50" relative="1" as="geometry">
            <mxPoint x="4640" y="-310" as="sourcePoint" />
            <mxPoint x="4630" y="-288" as="targetPoint" />
          </mxGeometry>
        </mxCell>
        <mxCell id="muE9ZtOaTJ1mrHtmLqYb-122" value="&lt;font style=&quot;font-size: 14px;&quot;&gt;$$M_{rotate}$$&lt;/font&gt;" style="ellipse;whiteSpace=wrap;html=1;aspect=fixed;fillColor=#A9C4EB;" parent="1" vertex="1">
          <mxGeometry x="4490" y="40" width="80" height="80" as="geometry" />
        </mxCell>
        <mxCell id="muE9ZtOaTJ1mrHtmLqYb-123" value="" style="shape=flexArrow;endArrow=classic;html=1;rounded=0;fillColor=#000000;exitX=0.5;exitY=1;exitDx=0;exitDy=0;width=0.3225806451612903;endSize=1.064804469273743;endWidth=2.980717246350694;" parent="1" source="muE9ZtOaTJ1mrHtmLqYb-122" target="muE9ZtOaTJ1mrHtmLqYb-61" edge="1">
          <mxGeometry width="50" height="50" relative="1" as="geometry">
            <mxPoint x="4540" y="-70" as="sourcePoint" />
            <mxPoint x="4540" y="50" as="targetPoint" />
          </mxGeometry>
        </mxCell>
        <mxCell id="muE9ZtOaTJ1mrHtmLqYb-124" value="" style="shape=flexArrow;endArrow=classic;html=1;rounded=0;exitX=0.68;exitY=-0.04;exitDx=0;exitDy=0;width=0.3225806451612903;endSize=1.064804469273743;endWidth=2.980717246350694;strokeColor=#F19C99;exitPerimeter=0;entryX=0.989;entryY=0.663;entryDx=0;entryDy=0;entryPerimeter=0;" parent="1" source="muE9ZtOaTJ1mrHtmLqYb-51" target="muE9ZtOaTJ1mrHtmLqYb-47" edge="1">
          <mxGeometry width="50" height="50" relative="1" as="geometry">
            <mxPoint x="4792" y="-97" as="sourcePoint" />
            <mxPoint x="4745" y="-70" as="targetPoint" />
          </mxGeometry>
        </mxCell>
        <mxCell id="muE9ZtOaTJ1mrHtmLqYb-125" value="" style="shape=flexArrow;endArrow=classic;html=1;rounded=0;exitX=0.717;exitY=0.948;exitDx=0;exitDy=0;width=0.3225806451612903;endSize=1.064804469273743;endWidth=2.980717246350694;strokeColor=#F19C99;entryX=0.5;entryY=0;entryDx=0;entryDy=0;exitPerimeter=0;" parent="1" source="muE9ZtOaTJ1mrHtmLqYb-112" target="muE9ZtOaTJ1mrHtmLqYb-47" edge="1">
          <mxGeometry width="50" height="50" relative="1" as="geometry">
            <mxPoint x="4787" y="-125" as="sourcePoint" />
            <mxPoint x="4749" y="-140" as="targetPoint" />
          </mxGeometry>
        </mxCell>
        <mxCell id="X1Wm_LyEuwkjNDrkTX-M-1" value="" style="shape=flexArrow;endArrow=classic;html=1;rounded=0;fillColor=#000000;exitX=0.95;exitY=0.701;exitDx=0;exitDy=0;width=0.3225806451612903;endSize=1.064804469273743;endWidth=2.980717246350694;entryX=0;entryY=0;entryDx=0;entryDy=0;exitPerimeter=0;" parent="1" source="muE9ZtOaTJ1mrHtmLqYb-14" target="muE9ZtOaTJ1mrHtmLqYb-11" edge="1">
          <mxGeometry width="50" height="50" relative="1" as="geometry">
            <mxPoint x="4340" y="-200" as="sourcePoint" />
            <mxPoint x="4340" y="-150" as="targetPoint" />
          </mxGeometry>
        </mxCell>
        <mxCell id="X1Wm_LyEuwkjNDrkTX-M-2" value="&lt;font size=&quot;1&quot;&gt;Eccentric Behavior&amp;nbsp;&lt;/font&gt;" style="ellipse;whiteSpace=wrap;html=1;aspect=fixed;fillColor=#FFFFFF;strokeColor=#F19C99;strokeWidth=2;dashed=1;dashPattern=8 8;" parent="1" vertex="1">
          <mxGeometry x="4320" y="-40" width="50" height="50" as="geometry" />
        </mxCell>
        <mxCell id="X1Wm_LyEuwkjNDrkTX-M-3" value="" style="shape=flexArrow;endArrow=classic;html=1;rounded=0;fillColor=#FFFFFF;exitX=0.5;exitY=0;exitDx=0;exitDy=0;width=0.3225806451612903;endSize=1.064804469273743;endWidth=2.980717246350694;strokeColor=#F19C99;entryX=0.634;entryY=0.984;entryDx=0;entryDy=0;entryPerimeter=0;" parent="1" source="X1Wm_LyEuwkjNDrkTX-M-2" target="muE9ZtOaTJ1mrHtmLqYb-10" edge="1">
          <mxGeometry width="50" height="50" relative="1" as="geometry">
            <mxPoint x="4293" y="-43" as="sourcePoint" />
            <mxPoint x="4312" y="-82" as="targetPoint" />
          </mxGeometry>
        </mxCell>
        <mxCell id="MDdzZGIZY-sYh3dO7ban-1" value="" style="shape=flexArrow;endArrow=classic;html=1;rounded=0;exitX=0;exitY=0.5;exitDx=0;exitDy=0;width=0.3225806451612903;endSize=1.064804469273743;endWidth=2.980717246350694;strokeColor=#F19C99;entryX=1;entryY=0.5;entryDx=0;entryDy=0;" parent="1" source="muE9ZtOaTJ1mrHtmLqYb-72" target="muE9ZtOaTJ1mrHtmLqYb-42" edge="1">
          <mxGeometry width="50" height="50" relative="1" as="geometry">
            <mxPoint x="4692" y="-377" as="sourcePoint" />
            <mxPoint x="4669" y="-335" as="targetPoint" />
          </mxGeometry>
        </mxCell>
        <mxCell id="MDdzZGIZY-sYh3dO7ban-3" value="" style="shape=flexArrow;endArrow=classic;html=1;rounded=0;exitX=0;exitY=0.5;exitDx=0;exitDy=0;width=0.3225806451612903;endSize=1.064804469273743;endWidth=2.980717246350694;strokeColor=#F19C99;entryX=1.02;entryY=0.76;entryDx=0;entryDy=0;entryPerimeter=0;" parent="1" source="muE9ZtOaTJ1mrHtmLqYb-73" target="muE9ZtOaTJ1mrHtmLqYb-42" edge="1">
          <mxGeometry width="50" height="50" relative="1" as="geometry">
            <mxPoint x="4712" y="-357" as="sourcePoint" />
            <mxPoint x="4689" y="-315" as="targetPoint" />
          </mxGeometry>
        </mxCell>
        <mxCell id="muE9ZtOaTJ1mrHtmLqYb-112" value="&lt;font size=&quot;1&quot;&gt;Bolt Fall&lt;/font&gt;" style="ellipse;whiteSpace=wrap;html=1;aspect=fixed;fillColor=#FFFFFF;strokeColor=#F19C99;strokeWidth=2;dashed=1;dashPattern=8 8;" parent="1" vertex="1">
          <mxGeometry x="4654" y="-280" width="50" height="50" as="geometry" />
        </mxCell>
        <mxCell id="MDdzZGIZY-sYh3dO7ban-8" value="" style="shape=flexArrow;endArrow=classic;html=1;rounded=0;width=0.3225806451612903;endSize=1.064804469273743;endWidth=2.980717246350694;strokeColor=#F19C99;entryX=1;entryY=0;entryDx=0;entryDy=0;exitX=0;exitY=1;exitDx=0;exitDy=0;" parent="1" source="muE9ZtOaTJ1mrHtmLqYb-110" target="muE9ZtOaTJ1mrHtmLqYb-103" edge="1">
          <mxGeometry width="50" height="50" relative="1" as="geometry">
            <mxPoint x="4790" y="-195" as="sourcePoint" />
            <mxPoint x="4800" y="-195" as="targetPoint" />
          </mxGeometry>
        </mxCell>
        <mxCell id="MDdzZGIZY-sYh3dO7ban-9" value="" style="shape=flexArrow;endArrow=classic;html=1;rounded=0;width=0.3225806451612903;endSize=1.064804469273743;endWidth=2.980717246350694;strokeColor=#F19C99;entryX=1;entryY=0;entryDx=0;entryDy=0;exitX=0;exitY=0;exitDx=0;exitDy=0;" parent="1" source="muE9ZtOaTJ1mrHtmLqYb-51" edge="1">
          <mxGeometry width="50" height="50" relative="1" as="geometry">
            <mxPoint x="4800" y="-185" as="sourcePoint" />
            <mxPoint x="4738" y="-78" as="targetPoint" />
          </mxGeometry>
        </mxCell>
        <mxCell id="7by9C8NgodRiIwX1lWs5-12" value="" style="shape=flexArrow;endArrow=classic;html=1;rounded=0;fillColor=#000000;width=0.3225806451612903;endSize=1.064804469273743;endWidth=2.980717246350694;entryX=0;entryY=0;entryDx=0;entryDy=0;" parent="1" source="oDT1i70okqJAfs5A48Vi-1" target="muE9ZtOaTJ1mrHtmLqYb-61" edge="1">
          <mxGeometry width="50" height="50" relative="1" as="geometry">
            <mxPoint x="3840.34" y="76.82999999999993" as="sourcePoint" />
            <mxPoint x="3851" y="179" as="targetPoint" />
          </mxGeometry>
        </mxCell>
        <mxCell id="7by9C8NgodRiIwX1lWs5-13" value="" style="shape=flexArrow;endArrow=classic;html=1;rounded=0;exitX=0;exitY=1;exitDx=0;exitDy=0;width=0.3225806451612903;endSize=1.064804469273743;endWidth=2.980717246350694;strokeColor=#F19C99;" parent="1" source="muE9ZtOaTJ1mrHtmLqYb-112" target="muE9ZtOaTJ1mrHtmLqYb-103" edge="1">
          <mxGeometry width="50" height="50" relative="1" as="geometry">
            <mxPoint x="4700" y="-223" as="sourcePoint" />
            <mxPoint x="4710" y="-193" as="targetPoint" />
          </mxGeometry>
        </mxCell>
        <mxCell id="muE9ZtOaTJ1mrHtmLqYb-47" value="&lt;font style=&quot;font-size: 14px;&quot;&gt;$$V_{jam}$$&lt;/font&gt;" style="ellipse;whiteSpace=wrap;html=1;aspect=fixed;fillColor=#FFFFFF;strokeColor=#080505;strokeWidth=1;" parent="1" vertex="1">
          <mxGeometry x="4660" y="-203" width="80" height="80" as="geometry" />
        </mxCell>
        <mxCell id="oDT1i70okqJAfs5A48Vi-1" value="&lt;font style=&quot;font-size: 14px;&quot;&gt;$$t_{CDCM}$$&lt;/font&gt;" style="ellipse;whiteSpace=wrap;html=1;aspect=fixed;fillColor=#CCCCCC;" vertex="1" parent="1">
          <mxGeometry x="3960" y="80" width="80" height="80" as="geometry" />
        </mxCell>
      </root>
    </mxGraphModel>
  </diagram>
</mxfile>
